<svg xmlns="http://www.w3.org/2000/svg" width="201" height="86" fill="none"><g fill="#fff" clip-path="url(#a)"><path d="M24.454 22.46a8.102 8.102 0 0 0-1.006-1.726 8.789 8.789 0 0 0-1.212-1.388c-.345-.294-.345-.609 0-.953.775-.772 1.418-1.775 1.936-3.009.518-1.25.774-2.463.774-3.63 0-1.476-.265-2.865-.8-4.166-.534-1.322-1.262-2.463-2.191-3.424a10.245 10.245 0 0 0-3.304-2.316C17.377 1.28 16.001 1 14.524 1H2.056c-.274 0-.526.113-.749.336a.987.987 0 0 0-.311.721v34.787c0 .272.105.524.311.746.223.206.471.311.749.311h12.463c1.633 0 3.114-.264 4.44-.797 1.342-.55 2.486-1.314 3.433-2.291.964-.995 1.696-2.195 2.192-3.6.518-1.406.775-2.967.775-4.684 0-.667-.076-1.355-.232-2.06a9.948 9.948 0 0 0-.669-2.006l-.004-.004ZM8.25 8.926c0-.361.172-.542.517-.542h5.496c.913 0 1.72.336 2.423 1.003.707.667 1.057 1.456 1.057 2.367 0 .91-.354 1.708-1.057 2.392-.707.688-1.514 1.028-2.423 1.028H8.767c-.345 0-.517-.172-.517-.517V8.922v.005Zm8.723 20.376c-.67.806-1.574 1.209-2.71 1.209H8.767c-.345 0-.517-.172-.517-.517v-6.894c0-.36.172-.541.517-.541h5.496c1.136 0 2.036.411 2.71 1.234.669.805 1.005 1.716 1.005 2.727a4.292 4.292 0 0 1-1.006 2.778v.004ZM15.285 63.691a109.77 109.77 0 0 0-2.672-.617 9.963 9.963 0 0 1-2.545-.923 5.906 5.906 0 0 1-1.927-1.615c-.497-.684-.745-1.608-.745-2.77 0-1.502.53-2.694 1.594-3.562 1.082-.873 2.479-1.31 4.191-1.31.67 0 1.347.084 2.033.256a5.372 5.372 0 0 1 1.876.873 4.53 4.53 0 0 1 1.364 1.51c.362.618.538 1.36.538 2.233v.693c0 .272.101.52.308.742a.986.986 0 0 0 .72.307h2.902c.29 0 .54-.101.745-.307.206-.222.307-.47.307-.742v-.693c0-1.368-.273-2.64-.82-3.818a9.185 9.185 0 0 0-2.264-3.127c-.96-.906-2.1-1.615-3.42-2.127-1.322-.529-2.753-.793-4.293-.793-1.371 0-2.71.222-4.01.667a10.736 10.736 0 0 0-3.471 1.922 9.503 9.503 0 0 0-2.44 3.101c-.62 1.213-.926 2.606-.926 4.18 0 1.434.223 2.718.669 3.843.446 1.112 1.052 2.077 1.826 2.895.77.819 1.687 1.503 2.752 2.052a14.08 14.08 0 0 0 3.547 1.23c1.338.323 2.545.625 3.623.898 1.098.273 2.032.65 2.802 1.129.77.478 1.363 1.086 1.776 1.82.429.718.644 1.692.644 2.921 0 .84-.165 1.624-.489 2.358a5.566 5.566 0 0 1-1.413 1.897 7.06 7.06 0 0 1-2.184 1.255c-.825.29-1.721.436-2.702.436-.98 0-1.876-.147-2.701-.436a7.326 7.326 0 0 1-2.159-1.23 5.533 5.533 0 0 1-1.439-1.896 5.965 5.965 0 0 1-.488-2.384v-.818c0-.29-.11-.537-.332-.743a.986.986 0 0 0-.72-.306H2.38c-.273 0-.522.109-.745.331a.98.98 0 0 0-.307.718v.818c0 1.502.299 2.912.9 4.23a11.3 11.3 0 0 0 2.47 3.487c1.065.99 2.323 1.78 3.78 2.358 1.455.563 3.024.848 4.703.848 1.507 0 2.984-.248 4.423-.743 1.439-.512 2.701-1.238 3.778-2.178A11.012 11.012 0 0 0 24.03 79.1c.67-1.35 1.002-2.861 1.002-4.536 0-3.008-.884-5.383-2.647-7.125-1.746-1.762-4.115-3.008-7.095-3.743l-.004-.004ZM54.666 21.406c1.894-1.271 3.278-2.635 4.153-4.091.896-1.456 1.342-3.206 1.342-5.25 0-1.51-.29-2.933-.875-4.271a10.964 10.964 0 0 0-2.398-3.525 10.997 10.997 0 0 0-3.535-2.392 10.625 10.625 0 0 0-4.283-.873H37.435c-.273 0-.526.113-.749.336a.987.987 0 0 0-.311.722v34.786c0 .273.105.524.311.747.223.205.471.31.75.31h5.288a1 1 0 0 0 .724-.31c.223-.223.337-.47.337-.747V23.676c0-.344.172-.516.517-.516h1.393c.273 0 .48.075.618.23.14.156.24.303.312.437l5.394 13.02c.156.311.345.567.568.773.223.189.552.281.98.281h5.446c.517 0 .85-.164 1.005-.49.173-.328.173-.69 0-1.084l-5.676-13.171c-.172-.395-.257-.714-.257-.953 0-.256.198-.524.594-.797h-.013Zm-2.992-6.718c-.724.722-1.59 1.082-2.604 1.082h-4.772c-.345-.016-.518-.197-.518-.54V8.926c0-.361.173-.542.518-.542h4.772c1.014 0 1.885.361 2.604 1.083.724.722 1.082 1.586 1.082 2.597a3.597 3.597 0 0 1-1.082 2.623ZM58.268 47.905h-20c-.273 0-.522.11-.745.332a.98.98 0 0 0-.307.717v2.896c0 .272.101.52.307.742.223.206.472.307.745.307h6.994c.361 0 .538.172.538.512v30.2c0 .272.101.52.307.742.223.206.472.306.745.306h2.904c.273 0 .513-.1.719-.306.206-.222.307-.47.307-.743v-30.2c.017-.34.198-.511.539-.511h6.943c.29 0 .538-.101.744-.307.207-.222.308-.47.308-.742v-2.896c0-.273-.11-.512-.333-.717a.952.952 0 0 0-.72-.332h.005ZM93.874 1H88.56a.99.99 0 0 0-.75.336.987.987 0 0 0-.31.721v24.779c0 1.166-.455 2.16-1.368 2.983-.896.823-2.15 1.234-3.766 1.234s-2.82-.411-3.716-1.234c-.875-.822-1.317-1.817-1.317-2.983V2.053c0-.273-.113-.516-.336-.722-.207-.222-.446-.335-.724-.335h-5.314a.984.984 0 0 0-.75.335.987.987 0 0 0-.31.722v24.779c0 1.577.302 3.08.904 4.502a11.543 11.543 0 0 0 2.58 3.73c1.118 1.045 2.444 1.88 3.971 2.497 1.549.617 3.215.928 5.008.928 1.792 0 3.5-.311 5.032-.928 1.549-.617 2.874-1.447 3.972-2.497a11.338 11.338 0 0 0 2.605-3.73c.635-1.422.955-2.925.955-4.503V2.053c0-.273-.114-.516-.337-.722-.206-.222-.446-.335-.723-.335l.008.004ZM93.201 48.489h-2.878c-.29 0-.539.109-.745.331a.98.98 0 0 0-.307.718V74.74c0 .856-.173 1.64-.513 2.358a5.567 5.567 0 0 1-1.414 1.897 6.997 6.997 0 0 1-2.21 1.254 8.31 8.31 0 0 1-2.726.437c-.841 0-1.67-.11-2.495-.332a7.303 7.303 0 0 1-2.21-1.049 5.329 5.329 0 0 1-1.569-1.846c-.379-.768-.564-1.675-.564-2.72V49.538c0-.272-.109-.511-.332-.717a.952.952 0 0 0-.72-.331H71.64c-.29 0-.538.109-.745.331a.98.98 0 0 0-.307.718V74.74c0 1.59.29 3.05.876 4.385a11 11 0 0 0 2.47 3.462c1.064.973 2.322 1.733 3.778 2.282 1.456.529 3.025.793 4.704.793 1.68 0 3.102-.264 4.524-.793a11.838 11.838 0 0 0 3.778-2.282 11.032 11.032 0 0 0 2.597-3.488c.635-1.334.95-2.786.95-4.36V49.538c0-.272-.109-.511-.332-.717a.951.951 0 0 0-.72-.331h-.012ZM107.966 37.897h5.289a.999.999 0 0 0 .724-.31c.223-.223.336-.47.336-.748V18.6c0-.172.059-.273.181-.31.122-.034.215.033.282.205l7.2 18.5c.067.206.206.412.412.617.206.19.543.282 1.006.282h6.244a.999.999 0 0 0 .724-.31c.223-.223.337-.47.337-.748V2.053c0-.273-.114-.516-.337-.722-.206-.222-.446-.335-.724-.335h-5.289c-.274 0-.526.113-.749.335a.987.987 0 0 0-.311.722v19.81c0 .19-.059.302-.181.336-.122.034-.215-.034-.282-.206l-7.25-20.045a1.373 1.373 0 0 0-.413-.642c-.206-.205-.509-.31-.904-.31h-6.295c-.274 0-.526.113-.749.335a.987.987 0 0 0-.311.722V36.84c0 .273.101.525.311.747.223.206.471.31.749.31ZM131.436 58.92a13.785 13.785 0 0 0-1.183-4.255c-.618-1.35-1.397-2.522-2.339-3.512a10.388 10.388 0 0 0-3.341-2.383c-1.284-.58-2.681-.873-4.191-.873h-11.546c-.274 0-.522.109-.745.331a.981.981 0 0 0-.307.718v34.66c0 .273.101.52.307.743.223.206.471.306.745.306h11.546c1.506 0 2.903-.29 4.191-.873a10.94 10.94 0 0 0 3.366-2.358c.959-.99 1.738-2.16 2.339-3.512a14.532 14.532 0 0 0 1.158-4.28c.101-1.062.189-2.212.256-3.462.084-1.263.131-2.555.131-3.873s-.034-2.614-.101-3.898a40.051 40.051 0 0 0-.282-3.487l-.004.008Zm-4.705 11.258a39.19 39.19 0 0 1-.282 3.462 7.366 7.366 0 0 1-.669 2.283 6.96 6.96 0 0 1-1.283 1.922 6.015 6.015 0 0 1-1.851 1.334 5.352 5.352 0 0 1-2.264.487h-7.073c-.341 0-.514-.172-.514-.512v-25.74c0-.34.173-.511.514-.511h7.073c.803 0 1.561.172 2.264.512a5.88 5.88 0 0 1 1.851 1.334c.53.546.959 1.188 1.283 1.922a7.84 7.84 0 0 1 .669 2.258c.139 1.061.232 2.232.282 3.512.051 1.263.076 2.555.076 3.873 0 1.317-.025 2.606-.076 3.873v-.009ZM162.246 4.37c-1.102-1.045-2.423-1.872-3.972-2.472-1.531-.6-3.206-.902-5.032-.902s-3.493.31-4.953.927c-1.46.617-2.726 1.456-3.791 2.522a12.784 12.784 0 0 0-2.579 3.705 14.213 14.213 0 0 0-1.237 4.478 44.927 44.927 0 0 0-.337 3.575 70.242 70.242 0 0 0 0 7.67c.084 1.267.198 2.447.337 3.525a14.212 14.212 0 0 0 1.237 4.477 13.136 13.136 0 0 0 2.579 3.73 11.839 11.839 0 0 0 3.791 2.523c1.481.616 3.131.927 4.953.927 1.822 0 3.501-.302 5.032-.902 1.549-.6 2.874-1.423 3.972-2.472a11.086 11.086 0 0 0 2.605-3.806c.635-1.477.955-3.088.955-4.838v-.05a.978.978 0 0 0-.336-.747.994.994 0 0 0-.724-.31h-5.264c-.295 0-.543.121-.749.36-.206.223-.311.47-.311.747v.05c0 .55-.131 1.1-.388 1.645a4.4 4.4 0 0 1-1.056 1.47 5.68 5.68 0 0 1-1.624 1.027 5.618 5.618 0 0 1-2.116.386c-1.616 0-2.849-.411-3.691-1.233a4.899 4.899 0 0 1-1.443-2.984c-.139-1.1-.24-2.274-.311-3.525a72.18 72.18 0 0 1-.105-3.86 65.6 65.6 0 0 1 .105-3.81c.067-1.25.172-2.447.311-3.575a5.005 5.005 0 0 1 1.473-2.959c.825-.822 2.045-1.233 3.665-1.233.841 0 1.582.138 2.217.41a4.79 4.79 0 0 1 1.599 1.083c.446.445.783.945 1.006 1.494a3.85 3.85 0 0 1 .362 1.595v.05c0 .273.105.525.311.747.223.206.471.31.749.31h5.264c.29 0 .543-.104.749-.31.206-.222.311-.47.311-.747v-.05c0-1.767-.319-3.386-.955-4.864a10.855 10.855 0 0 0-2.604-3.78l-.005-.004ZM154.475 49.055h-2.904c-.273 0-.522.11-.745.331a.98.98 0 0 0-.307.718v34.66c0 .273.101.52.307.743.223.206.472.306.745.306h2.904c.273 0 .513-.1.719-.306.223-.222.333-.47.333-.743v-34.66c0-.273-.11-.512-.333-.718a.95.95 0 0 0-.719-.331ZM177.369 37.897h4.755c.273 0 .56-.105.85-.31.311-.223.463-.47.463-.748V23.668c0-.344.172-.517.517-.517h8.05c.345 0 .517.173.517.517v13.171c0 .273.105.525.312.747.223.206.471.31.749.31h5.289c.273 0 .517-.104.724-.31.223-.222.336-.47.336-.747V2.053c0-.273-.113-.516-.336-.722-.207-.222-.446-.335-.724-.335h-5.289c-.274 0-.526.113-.749.335a.985.985 0 0 0-.312.722v13.172c0 .36-.172.541-.517.541h-8.05c-.345-.017-.517-.197-.517-.541V2.053c0-.273-.114-.516-.337-.722-.206-.222-.446-.335-.724-.335h-5.015c-.274 0-.526.113-.749.335a.985.985 0 0 0-.312.722V36.84c0 .273.101.525.312.747.223.206.471.31.749.31h.008ZM200.92 62.458a39.92 39.92 0 0 0-.282-3.643c-.206-1.674-.644-3.189-1.313-4.536-.669-1.351-1.523-2.497-2.571-3.437a10.426 10.426 0 0 0-3.572-2.177c-1.355-.512-3.593-.768-5.167-.768-1.746 0-4.09.298-5.479.898-1.388.6-2.331 1.401-3.341 2.408a11.976 11.976 0 0 0-2.39 3.487 14.466 14.466 0 0 0-1.132 4.13 37.307 37.307 0 0 0-.332 3.612 88.051 88.051 0 0 0 0 8.485c.084 1.385.198 2.597.332 3.642.207 1.691.644 3.215 1.313 4.566.669 1.334 1.515 2.48 2.546 3.436 1.027.94 1.961 1.666 3.316 2.178 1.355.495 3.593.743 5.167.743 1.729 0 4.073-.29 5.478-.873 1.406-.6 2.605-1.393 3.598-2.383a11.856 11.856 0 0 0 2.39-3.513 14.13 14.13 0 0 0 1.157-4.154c.101-1.04.19-2.257.257-3.642.067-1.385.101-2.795.101-4.23 0-1.435-.025-2.845-.076-4.23Zm-4.936 8.434a58.601 58.601 0 0 1-.332 3.667c-.29 1.897-1.065 3.365-2.314 4.41-1.25 1.024-3.539 1.54-5.323 1.54-1.01 0-2.693-.163-3.497-.486a6.972 6.972 0 0 1-2.083-1.335 6.291 6.291 0 0 1-1.388-1.896c-.324-.718-.282-1.46-.387-2.233-.139-1.078-.24-2.3-.308-3.667a85.963 85.963 0 0 1-.101-4.205c0-1.435.034-2.836.101-4.204.068-1.368.173-2.59.308-3.668.239-1.93.753-3.403 2.057-4.41 1.305-1.007 3.585-1.51 5.298-1.51 1.064 0 2.76.163 3.551.486.787.323 1.473.76 2.058 1.31a6.018 6.018 0 0 1 1.363 1.896c.341.718.564 1.46.669 2.232.139 1.079.248 2.3.333 3.668a68.562 68.562 0 0 1 0 8.409l-.005-.004Z"/></g><defs><clipPath id="a"><path fill="#fff" d="M0 0h201v86H0z"/></clipPath></defs></svg>