<svg xmlns="http://www.w3.org/2000/svg" data-name="Layer 2" viewBox="0 0 749.17 311.77"><g data-name="Calque 1"><path d="M87.85 80.6a30.808 30.808 0 0 0-3.77-6.48c-1.42-2-2.93-3.74-4.54-5.22-1.29-1.1-1.29-2.29 0-3.58 2.9-2.9 5.32-6.67 7.25-11.31 1.93-4.7 2.9-9.25 2.9-13.63 0-5.54-1-10.76-3-15.66-2-4.96-4.74-9.25-8.22-12.85-3.48-3.67-7.6-6.57-12.37-8.7-4.77-2.13-9.92-3.19-15.46-3.19H3.96c-1.03 0-1.97.42-2.8 1.26C.39 2.01 0 2.92 0 3.95v130.67c0 1.03.39 1.97 1.16 2.8.84.77 1.77 1.16 2.8 1.16h46.68c6.12 0 11.66-1 16.62-3 5.03-2.06 9.31-4.93 12.85-8.6 3.61-3.74 6.35-8.25 8.22-13.53 1.93-5.28 2.9-11.15 2.9-17.59 0-2.51-.29-5.09-.87-7.73-.58-2.64-1.42-5.15-2.51-7.54ZM27.16 29.77c0-1.35.64-2.03 1.93-2.03h20.59c3.42 0 6.44 1.26 9.08 3.77 2.64 2.51 3.96 5.48 3.96 8.89s-1.32 6.41-3.96 8.99c-2.64 2.58-5.67 3.87-9.08 3.87H29.09c-1.29 0-1.93-.64-1.93-1.93V29.78Zm32.67 76.55c-2.51 3.03-5.9 4.54-10.15 4.54H29.09c-1.29 0-1.93-.64-1.93-1.93v-25.9c0-1.35.64-2.03 1.93-2.03h20.59c4.25 0 7.64 1.55 10.15 4.64 2.51 3.03 3.77 6.44 3.77 10.25s-1.26 7.41-3.77 10.44ZM53.51 229.33c-3.15-.77-6.48-1.54-10.02-2.31-3.47-.77-6.64-1.93-9.53-3.47-2.89-1.54-5.3-3.56-7.22-6.07-1.86-2.57-2.79-6.03-2.79-10.4 0-5.65 1.99-10.11 5.97-13.39 4.04-3.27 9.28-4.91 15.7-4.91 2.5 0 5.04.32 7.61.96 2.57.64 4.91 1.73 7.03 3.27 2.12 1.48 3.82 3.37 5.1 5.68 1.35 2.31 2.02 5.1 2.02 8.38v2.6c0 1.03.39 1.96 1.16 2.79.77.77 1.67 1.16 2.7 1.16h10.88c1.09 0 2.02-.38 2.79-1.16.77-.83 1.16-1.77 1.16-2.79v-2.6c0-5.14-1.03-9.92-3.08-14.35-1.99-4.49-4.82-8.41-8.48-11.75-3.6-3.4-7.86-6.07-12.81-7.99-4.94-1.99-10.3-2.98-16.08-2.98-5.14 0-10.14.83-15.02 2.5-4.81 1.61-9.15 4.01-13 7.22-3.79 3.15-6.84 7.03-9.15 11.65-2.31 4.56-3.47 9.79-3.47 15.7 0 5.39.83 10.21 2.5 14.44 1.67 4.17 3.95 7.8 6.84 10.88 2.89 3.08 6.32 5.65 10.3 7.7 3.98 2.06 8.41 3.6 13.29 4.62 5.01 1.22 9.53 2.34 13.58 3.37 4.11 1.03 7.61 2.44 10.5 4.24 2.89 1.8 5.1 4.08 6.64 6.84 1.6 2.7 2.41 6.36 2.41 10.98 0 3.15-.61 6.1-1.83 8.86-1.22 2.7-2.98 5.07-5.3 7.13-2.31 1.99-5.04 3.56-8.19 4.72-3.08 1.09-6.45 1.64-10.11 1.64s-7.03-.55-10.11-1.64c-3.08-1.15-5.78-2.7-8.09-4.62a20.853 20.853 0 0 1-5.39-7.13c-1.22-2.82-1.83-5.81-1.83-8.96v-3.08c0-1.09-.42-2.02-1.25-2.79-.77-.77-1.67-1.15-2.7-1.15H5.17c-1.03 0-1.96.42-2.79 1.25-.77.77-1.16 1.67-1.16 2.7v3.08c0 5.65 1.12 10.95 3.37 15.89a42.8 42.8 0 0 0 9.24 13.1c3.98 3.72 8.7 6.68 14.16 8.86 5.46 2.12 11.33 3.18 17.62 3.18 5.65 0 11.17-.93 16.56-2.79 5.39-1.93 10.11-4.66 14.16-8.19 4.11-3.6 7.41-7.93 9.92-13 2.5-5.07 3.75-10.75 3.75-17.05 0-11.3-3.31-20.22-9.92-26.77-6.55-6.61-15.41-11.3-26.58-14.06ZM201.03 76.64c7.09-4.77 12.28-9.89 15.56-15.37 3.35-5.48 5.03-12.05 5.03-19.72 0-5.67-1.09-11.02-3.29-16.04-2.19-5.09-5.19-9.5-8.99-13.24-3.74-3.8-8.15-6.8-13.24-8.99-5.03-2.19-10.37-3.29-16.04-3.29h-43.59c-1.03 0-1.97.42-2.8 1.26-.77.77-1.16 1.68-1.16 2.71v130.67c0 1.03.39 1.97 1.16 2.8.84.77 1.77 1.16 2.8 1.16h19.81c1.03 0 1.93-.39 2.71-1.16.84-.84 1.26-1.77 1.26-2.8V85.15c0-1.29.65-1.93 1.93-1.93h5.22c1.03 0 1.8.29 2.32.87.52.58.9 1.13 1.16 1.64l20.2 48.9c.58 1.16 1.29 2.13 2.13 2.9.84.71 2.06 1.06 3.67 1.06h20.39c1.93 0 3.19-.61 3.77-1.84.64-1.22.64-2.58 0-4.06l-21.26-49.48c-.64-1.48-.97-2.67-.97-3.58 0-.97.74-1.97 2.22-3Zm-11.21-25.23c-2.71 2.71-5.96 4.06-9.76 4.06h-17.88c-1.29-.06-1.93-.74-1.93-2.03V29.76c0-1.35.65-2.03 1.93-2.03h17.88c3.8 0 7.06 1.35 9.76 4.06 2.7 2.71 4.06 5.96 4.06 9.76s-1.35 7.15-4.06 9.86ZM214.52 171.55H139.6c-1.03 0-1.96.42-2.79 1.25-.77.77-1.16 1.67-1.16 2.7v10.88c0 1.03.38 1.96 1.16 2.79.83.77 1.77 1.16 2.79 1.16h26.19c1.35 0 2.02.64 2.02 1.93V305.7c0 1.03.38 1.96 1.16 2.79.83.77 1.77 1.16 2.79 1.16h10.88c1.03 0 1.93-.39 2.7-1.16.77-.83 1.16-1.76 1.16-2.79V192.26c.06-1.28.74-1.93 2.02-1.93h26c1.09 0 2.02-.38 2.79-1.16.77-.83 1.16-1.77 1.16-2.79V175.5c0-1.03-.42-1.93-1.25-2.7-.77-.84-1.67-1.25-2.7-1.25ZM347.89 0h-19.91c-1.1 0-2.03.42-2.8 1.26-.77.77-1.16 1.68-1.16 2.71v93.07c0 4.38-1.71 8.12-5.12 11.21-3.35 3.09-8.05 4.64-14.11 4.64s-10.57-1.55-13.92-4.64c-3.29-3.09-4.93-6.83-4.93-11.21V3.96c0-1.03-.42-1.93-1.26-2.71-.77-.84-1.68-1.26-2.71-1.26h-19.91c-1.1 0-2.03.42-2.8 1.26-.77.77-1.16 1.68-1.16 2.71v93.07c0 5.93 1.13 11.56 3.38 16.91 2.32 5.35 5.54 10.02 9.66 14.01 4.19 3.93 9.15 7.05 14.88 9.37 5.8 2.32 12.05 3.48 18.75 3.48s13.11-1.16 18.85-3.48c5.8-2.32 10.76-5.45 14.88-9.37 4.19-4 7.44-8.67 9.76-14.01 2.38-5.35 3.58-10.99 3.58-16.91V3.96c0-1.03-.42-1.93-1.26-2.71-.77-.84-1.68-1.26-2.71-1.26ZM345.38 171.55h-10.79c-1.09 0-2.02.42-2.79 1.25-.77.77-1.16 1.67-1.16 2.7v94.66c0 3.21-.64 6.16-1.93 8.86-1.22 2.7-2.99 5.07-5.3 7.13-2.31 1.99-5.07 3.56-8.28 4.72-3.15 1.09-6.55 1.64-10.21 1.64-3.15 0-6.26-.42-9.34-1.25-3.08-.9-5.84-2.21-8.28-3.95-2.44-1.8-4.4-4.11-5.87-6.93-1.41-2.89-2.12-6.29-2.12-10.21v-94.66c0-1.03-.42-1.93-1.25-2.7-.77-.84-1.67-1.25-2.7-1.25h-10.79c-1.09 0-2.02.42-2.79 1.25-.77.77-1.16 1.67-1.16 2.7v94.66c0 5.97 1.09 11.46 3.27 16.47 2.25 4.94 5.33 9.28 9.25 13 3.98 3.66 8.7 6.52 14.16 8.57 5.46 1.99 11.33 2.98 17.62 2.98s11.62-.99 16.95-2.98c5.39-2.06 10.11-4.91 14.16-8.57 4.11-3.72 7.35-8.09 9.73-13.1 2.38-5.01 3.56-10.46 3.56-16.37v-94.66c0-1.03-.42-1.93-1.25-2.7-.77-.84-1.67-1.25-2.7-1.25ZM400.67 138.59h19.81c1.03 0 1.93-.39 2.71-1.16.84-.84 1.26-1.77 1.26-2.8V66.11c0-.64.22-1.03.68-1.16.45-.13.81.13 1.06.77l26.96 69.49c.26.77.77 1.55 1.55 2.32.77.71 2.03 1.06 3.77 1.06h23.39c1.03 0 1.93-.39 2.71-1.16.84-.84 1.26-1.77 1.26-2.8V3.96c0-1.03-.42-1.93-1.26-2.71-.77-.84-1.68-1.26-2.71-1.26h-19.81c-1.03 0-1.97.42-2.8 1.26-.77.77-1.16 1.68-1.16 2.71v74.42c0 .71-.22 1.13-.68 1.26-.45.13-.81-.13-1.06-.77L429.18 3.58c-.26-.9-.77-1.71-1.55-2.42-.77-.77-1.9-1.16-3.38-1.16h-23.58c-1.03 0-1.96.42-2.8 1.26-.77.77-1.16 1.68-1.16 2.71v130.67c0 1.03.39 1.97 1.16 2.8.84.77 1.77 1.16 2.8 1.16ZM484.85 212.96c-.64-5.65-2.12-10.98-4.43-15.99-2.31-5.07-5.23-9.47-8.76-13.19-3.53-3.79-7.7-6.77-12.52-8.96-4.82-2.18-10.05-3.27-15.7-3.27h-43.25c-1.03 0-1.96.42-2.79 1.25-.77.77-1.16 1.67-1.16 2.7v130.2c0 1.03.38 1.96 1.16 2.79.83.77 1.77 1.16 2.79 1.16h43.25c5.65 0 10.88-1.09 15.7-3.27 4.81-2.18 9.02-5.14 12.62-8.86 3.6-3.72 6.52-8.12 8.76-13.19 2.25-5.07 3.69-10.43 4.33-16.08.39-3.98.71-8.31.96-13 .32-4.75.48-9.6.48-14.54s-.13-9.82-.39-14.64c-.19-4.82-.55-9.18-1.06-13.1Zm-17.62 42.28c-.19 4.75-.55 9.08-1.06 13-.39 3.02-1.22 5.87-2.5 8.57-1.22 2.7-2.82 5.1-4.82 7.22a22.28 22.28 0 0 1-6.93 5.01c-2.63 1.22-5.46 1.83-8.47 1.83h-26.49c-1.28 0-1.93-.64-1.93-1.93v-96.68c0-1.28.64-1.93 1.93-1.93h26.49c3.02 0 5.84.64 8.47 1.93a22.28 22.28 0 0 1 6.93 5.01c1.99 2.05 3.59 4.46 4.82 7.22 1.28 2.76 2.12 5.59 2.5 8.47.51 3.98.87 8.38 1.06 13.19a363.864 363.864 0 0 1 0 29.08ZM604 12.66c-4.12-3.93-9.09-7.02-14.88-9.28C583.39 1.12 577.1 0 570.27 0s-13.08 1.16-18.56 3.48c-5.48 2.32-10.21 5.48-14.21 9.47-3.99 4-7.22 8.63-9.66 13.92-2.45 5.28-4 10.89-4.64 16.82-.58 4.25-1 8.73-1.26 13.43-.26 4.64-.39 9.41-.39 14.3s.13 9.73.39 14.5c.32 4.77.74 9.18 1.26 13.24.64 5.93 2.19 11.53 4.64 16.82 2.45 5.28 5.67 9.95 9.66 14.01 4 3.99 8.73 7.15 14.21 9.47 5.54 2.32 11.73 3.48 18.56 3.48s13.11-1.13 18.85-3.38c5.8-2.26 10.76-5.35 14.88-9.28 4.19-3.99 7.44-8.76 9.76-14.3 2.38-5.54 3.58-11.6 3.58-18.17v-.19c0-1.1-.42-2.03-1.26-2.8-.77-.77-1.68-1.16-2.71-1.16h-19.72c-1.1 0-2.03.45-2.8 1.35-.77.84-1.16 1.77-1.16 2.8V98c0 2.06-.48 4.12-1.45 6.19-.9 2.06-2.22 3.9-3.96 5.51-1.68 1.55-3.7 2.83-6.09 3.86-2.38.97-5.03 1.45-7.93 1.45-6.06 0-10.66-1.55-13.82-4.64-3.09-3.09-4.9-6.83-5.41-11.21-.52-4.12-.9-8.54-1.16-13.24-.26-4.77-.39-9.6-.39-14.5s.13-9.66.39-14.3c.26-4.7.64-9.18 1.16-13.43.58-4.32 2.42-8.02 5.51-11.11s7.67-4.64 13.72-4.64c3.16 0 5.93.52 8.31 1.55 2.38 1.03 4.38 2.38 5.99 4.06 1.68 1.68 2.93 3.54 3.77 5.61.9 2 1.35 4 1.35 5.99v.19c0 1.03.39 1.97 1.16 2.8.84.77 1.77 1.16 2.8 1.16h19.72c1.1 0 2.03-.39 2.8-1.16.77-.84 1.16-1.77 1.16-2.8v-.19c0-6.64-1.19-12.73-3.58-18.27-2.32-5.54-5.57-10.28-9.76-14.21ZM574.89 173.68h-10.88c-1.03 0-1.96.42-2.79 1.25-.77.77-1.16 1.67-1.16 2.7v130.2c0 1.03.39 1.96 1.16 2.79.83.77 1.77 1.16 2.79 1.16h10.88c1.03 0 1.93-.39 2.7-1.16.84-.83 1.25-1.77 1.25-2.79v-130.2c0-1.03-.42-1.93-1.25-2.7-.77-.83-1.67-1.25-2.7-1.25ZM660.65 138.59h17.82c1.03 0 2.09-.39 3.19-1.16 1.16-.84 1.74-1.77 1.74-2.8V85.15c0-1.29.64-1.93 1.93-1.93h30.15c1.29 0 1.93.64 1.93 1.93v49.48c0 1.03.39 1.97 1.16 2.8.84.77 1.77 1.16 2.8 1.16h19.81c1.03 0 1.93-.39 2.71-1.16.84-.84 1.26-1.77 1.26-2.8V3.96c0-1.03-.42-1.93-1.26-2.71-.77-.84-1.68-1.26-2.71-1.26h-19.81c-1.03 0-1.97.42-2.8 1.26-.77.77-1.16 1.68-1.16 2.71v49.48c0 1.35-.64 2.03-1.93 2.03h-30.15c-1.29-.06-1.93-.74-1.93-2.03V3.96c0-1.03-.42-1.93-1.26-2.71-.77-.84-1.68-1.26-2.71-1.26h-18.78c-1.03 0-1.96.42-2.8 1.26-.77.77-1.16 1.68-1.16 2.71v130.67c0 1.03.39 1.97 1.16 2.8.84.77 1.77 1.16 2.8 1.16ZM748.88 224.71c-.19-5.2-.55-9.76-1.06-13.67-.77-6.29-2.41-11.97-4.91-17.05-2.5-5.07-5.71-9.37-9.63-12.9-3.85-3.6-8.31-6.32-13.39-8.19-5.07-1.93-13.46-2.89-19.36-2.89-6.55 0-15.32 1.12-20.52 3.37-5.2 2.25-8.73 5.26-12.52 9.05-3.72 3.79-6.71 8.15-8.96 13.1a54.281 54.281 0 0 0-4.24 15.5c-.58 3.92-.99 8.44-1.25 13.58-.26 5.14-.38 10.43-.38 15.89s.13 10.78.38 15.99c.32 5.2.74 9.76 1.25 13.67.77 6.36 2.41 12.07 4.91 17.14 2.5 5.01 5.68 9.31 9.53 12.9 3.85 3.53 7.35 6.26 12.42 8.19 5.07 1.86 13.46 2.79 19.36 2.79 6.48 0 15.25-1.09 20.52-3.27 5.26-2.25 9.76-5.23 13.48-8.96 3.72-3.79 6.71-8.19 8.96-13.19a53.165 53.165 0 0 0 4.33-15.6c.39-3.92.71-8.47.96-13.67.26-5.2.38-10.5.38-15.89s-.1-10.69-.29-15.89Zm-18.49 31.68c-.32 5.14-.74 9.73-1.25 13.77-1.09 7.13-3.98 12.65-8.67 16.56-4.69 3.85-13.26 5.78-19.94 5.78-3.79 0-10.09-.61-13.1-1.83-3.02-1.28-5.62-2.95-7.8-5.01a23.591 23.591 0 0 1-5.2-7.13c-1.22-2.7-1.06-5.49-1.44-8.38-.51-4.05-.9-8.63-1.15-13.77-.26-5.14-.39-10.4-.39-15.79s.13-10.66.39-15.79c.26-5.14.64-9.73 1.15-13.77.9-7.25 2.82-12.78 7.7-16.56 4.88-3.79 13.42-5.68 19.84-5.68 3.98 0 10.34.61 13.3 1.83 2.95 1.22 5.52 2.86 7.7 4.91a22.32 22.32 0 0 1 5.1 7.13c1.28 2.7 2.12 5.49 2.5 8.38.51 4.04.93 8.63 1.25 13.77.32 5.14.48 10.4.48 15.79s-.16 10.66-.48 15.79Z"/></g></svg>